PathFileType	4	(X/Y/Z)	C:/Users/beibeiliu/ov580/test_trc/User3\sequence.12_training_dense_left.trc
DataRate	CameraRate	NumFrames	NumMarkers	Units	OrigDataRate	OrigDataStartFrame	OrigNumFrames
120	120	12	19	mm	120	1	75
Frame#	Time	ThumbCMC			ThumbMCP			ThumbIP			ThumbTip			IndexMCP			IndexPIP			IndexTip			MiddleMCP			MiddlePIP			MiddleTip			RingMCP			RingPIP			RingTip			PinkyMCP			PinkyPIP			PinkyTip			BackHand1			BackHand2			BackHand3	
		X0	Y0	Z0	X1	Y1	Z1	X2	Y2	Z2	X3	Y3	Z3	X4	Y4	Z4	X5	Y5	Z5	X6	Y6	Z6	X7	Y7	Z7	X8	Y8	Z8	X9	Y9	Z9	X10	Y10	Z10	X11	Y11	Z11	X12	Y12	Z12	X13	Y13	Z13	X14	Y14	Z14	X15	Y15	Z15	X16	Y16	Z16	X17	Y17	Z17	X18	Y18	Z18	
0	0	-56.1304	39.7206	34.7846	-36.798	29.1254	15.7616	-14.9721	21.5671	-4.44875	-3.11176	11.4829	-26.0507	-73.8445	57.2116	-40.807	-63.4302	57.6478	-66.4723	-55.8904	52.916	-96.7893	-99.8854	59.0034	-48.1107	-101.057	57.1682	-78.4161	-102.186	42.5334	-108.913	-119.942	50.3251	-43.2137	-125.352	47.1793	-66.1341	-130.344	32.9787	-91.1216	-143.273	37.7367	-26.7421	-149.976	30.9094	-44.8552	-152.338	18.0104	-67.9378	-118.233	60.7391	7.52335	-119.674	60.5105	42.5371	-86.717	63.0247	22.7215	
1	0.00833333	-57.3687	34.2328	31.1194	-35.9375	25.1587	12.9313	-20.4417	16.399	-8.04184	-4.48377	6.40071	-27.467	-74.5879	52.3143	-43.6482	-65.415	52.7287	-72.3076	-59.2519	46.7813	-99.257	-99.5481	54.0788	-51.6863	-100.305	52.2044	-76.992	-103.02	37.0489	-109.753	-124.453	45.1503	-41.5316	-124.744	40.9474	-67.1588	-130.709	25.0118	-96.122	-140.113	33.0748	-23.6926	-151.201	24.5057	-49.9486	-155.791	13.7663	-67.2899	-120.109	54.6271	10.5152	-118.269	57.3292	38.9814	-85.5545	57.4162	19.7634	
2	0.0166667	-57.1379	32.5157	31.6511	-37.9679	23.6744	13.5164	-16.4359	14.8101	-12.182	-7.51035	5.84783	-26.0189	-69.0844	51.4181	-47.6445	-66.0757	51.425	-71.3136	-56.251	46.7801	-96.1254	-101.559	53.0111	-49.2415	-100.581	50.4105	-79.0303	-99.8954	36.8665	-109.478	-118.996	44.2076	-40.9647	-125.572	37.8309	-71.8735	-131.733	23.785	-95.4549	-141.674	33.1192	-25.515	-150.941	24.0077	-48.247	-153.601	11.4478	-67.2055	-120.245	54.5285	9.21445	-116.81	54.8431	37.827	-86.37	55.9952	21.589	
3	0.025	-54.3224	33.9474	25.7815	-38.8853	24.0926	8.823	-19.3278	15.5182	-12.1221	-7.54754	6.28909	-26.106	-72.9118	52.0082	-48.6966	-62.5939	52.4995	-75.4588	-63.0203	47.6379	-97.1301	-99.9958	53.5769	-49.2315	-101.993	50.7847	-82.3108	-103.742	36.6138	-110.994	-119.87	45.613	-44.6814	-127.33	39.7237	-71.5929	-130.364	28.3162	-92.8792	-137.627	34.0206	-25.9098	-147.716	28.1335	-50.1591	-155.526	15.4772	-69.5361	-119.235	54.5376	5.07158	-121.188	56.0511	35.8195	-85.6103	57.4379	17.2734	
4	0.0333333	-60.6144	33.1806	28.4364	-39.0788	24.0158	6.38814	-19.0908	15.1751	-11.4557	-7.04454	5.70714	-28.7005	-72.9765	52.1332	-45.7707	-67.5734	53.0469	-71.5939	-61.5526	48.3247	-97.4092	-100.494	55.5448	-55.3224	-102.035	49.8302	-84.9645	-104.086	38.0481	-110.528	-126.654	45.0834	-43.4297	-128.795	41.1251	-73.3579	-135.326	26.8426	-96.4614	-145.455	34.5026	-27.3333	-148.559	30.0142	-48.913	-158.116	17.7592	-70.1109	-121.804	56.4676	5.65559	-117.138	57.3081	33.8612	-88.0529	56.5799	16.703	
5	0.0416667	-62.3599	33.263	23.6775	-42.865	24.3223	6.11044	-24.0033	15.5232	-16.9263	-9.88087	5.67231	-31.446	-76.2513	51.5963	-45.3273	-74.7455	51.6821	-76.6639	-67.478	47.0747	-98.2808	-108.427	54.3876	-53.961	-106.931	51.7228	-82.2028	-111.789	37.8449	-110.899	-130.905	45.2092	-42.9612	-135.905	41.2703	-71.8725	-141.098	30.1808	-93.3002	-146.391	35.8199	-26.5101	-152.337	31.6017	-46.2957	-161.948	18.7992	-68.0949	-121.262	55.4489	9.27223	-122.084	55.3707	36.4285	-87.6538	56.2997	17.7818	
6	0.05	-62.538	34.3334	22.878	-43.3391	24.8249	3.61117	-29.6365	14.9109	-15.522	-17.8199	6.75898	-34.7116	-84.2388	54.173	-51.5437	-76.354	52.5882	-73.717	-75.3572	46.2431	-99.9948	-113.527	56.6301	-54.2948	-111.009	54.8639	-79.7426	-114.704	42.3122	-113.347	-130.003	47.5709	-41.0934	-138.894	45.0937	-68.4743	-143.445	35.4616	-97.4624	-152.162	36.8303	-25.6219	-159.773	32.8258	-50.2598	-167.029	24.157	-69.5695	-123.27	53.8912	9.92232	-126.143	54.8045	38.8724	-93.9312	58.4374	19.6614	
7	0.0583333	-65.5821	35.5641	26.9752	-47.6142	25.9181	4.354	-31.1857	18.0774	-23.0878	-23.195	8.22118	-40.9474	-86.8124	58.3337	-50.2223	-79.5763	53.1234	-79.0159	-80.4994	43.873	-100.392	-115.481	61.0153	-53.058	-116.033	59.3653	-79.3057	-115.139	46.9785	-115.05	-133.886	52.2673	-41.0801	-145.38	49.9485	-67.0337	-149.691	42.7452	-92.3148	-155.467	41.0869	-27.0401	-161.229	38.2799	-46.1045	-170.041	30.0989	-71.9132	-131.94	55.093	12.0723	-129.282	54.3179	38.4874	-94.4831	61.1165	20.1347	
8	0.0666667	-67.6863	37.099	24.337	-51.6161	28.6767	-0.612763	-42.6181	21.0235	-26.0545	-39.2776	12.1792	-51.3914	-87.3861	63.5405	-46.476	-81.0552	54.0588	-78.6515	-75.5164	32.9317	-97.9263	-114.945	68.0823	-47.3156	-118.229	66.4576	-80.6805	-115.17	54.7967	-110.341	-136.716	59.1832	-40.3297	-144.683	58.7221	-65.4116	-145.589	51.8216	-94.6762	-154.766	43.7658	-22.5695	-160.593	44.1368	-44.9085	-169.724	38.8136	-70.1749	-130.986	57.5344	12.031	-131.445	52.924	43.1057	-97.966	61.1451	23.7998	
9	0.075	-70.0574	37.9914	26.6943	-49.53	30.5287	-1.7665	-41.9817	24.2697	-27.9485	-49.5575	16.1157	-51.0632	-84.4276	67.631	-45.3959	-81.216	57.0872	-72.2341	-76.7077	30.1628	-88.2844	-111.361	75.3953	-47.0083	-110.195	74.9097	-76.5413	-108.554	61.7005	-106.559	-131.453	67.0209	-39.7003	-141.968	67.0044	-62.5528	-141.714	60.29	-91.9085	-148.16	48.7815	-22.9031	-158.968	49.3921	-48.0188	-163.365	46.2935	-70.4561	-133.385	59.6184	14.7577	-131.979	54.5465	40.7982	-97.1303	63.5226	27.7887	
10	0.0833333	-67.6475	39.3128	25.1697	-52.4963	32.3051	-2.29139	-46.9141	27.7132	-32.0665	-54.0486	22.1029	-57.6112	-84.8299	71.2019	-43.7821	-76.5219	57.8165	-69.1582	-76.3941	26.7676	-79.9028	-110.233	81.7296	-45.4787	-107.774	81.2105	-72.4581	-108.188	68.1884	-103.431	-134.627	70.5347	-35.5632	-137.859	75.1714	-61.0397	-136.778	70.9028	-91.8089	-146.613	54.2791	-22.8455	-156.131	57.5763	-47.117	-160.202	54.8531	-69.9214	-132.041	61.6197	17.011	-130.571	53.5948	40.8693	-98.4862	65.0371	29.9336	
11	0.0916667	-71.2663	35.6912	25.3873	-51.2433	30.9887	-4.44983	-47.9366	29.2507	-34.9102	-60.9326	26.7102	-57.5662	-83.4181	75.8586	-42.3882	-78.6699	59.3841	-69.0444	-80.0649	32.8185	-75.8531	-109.047	88.0404	-39.1592	-109.669	90.4267	-71.1303	-107.369	77.8081	-104.371	-131.927	78.6312	-30.5067	-133.542	86.5119	-57.017	-138.273	83.5152	-85.0386	-146.745	65.6538	-25.2404	-154.28	67.2178	-43.2478	-163.112	65.5095	-69.9208	-130.77	67.5268	18.3727	-131.676	54.5011	44.5946	-93.7967	64.45	29.2561	
